<svg width="1440" height="3562" viewBox="0 0 1440 3562" fill="none" xmlns="http://www.w3.org/2000/svg">
<path fill-rule="evenodd" clip-rule="evenodd" d="M-1356.5 697.499C-1332.85 489.093 -1467.56 162.581 -1356.5 -4.00032C-1245.55 -170.417 -1169.21 -389.985 -1010.5 -463C-855.222 -534.434 35.6714 -355.239 194.09 -339.348C355.114 -323.196 818.929 -602.469 846.002 -463C895.502 -208 880.168 125.701 769.003 399.5C657.838 673.299 597.668 748.5 559.866 814.701C522.063 880.902 364.166 1105.15 288.657 1224.7C244.794 1294.15 188.157 1367.26 188.157 1531.2C188.157 1695.15 280.794 1795.73 373.794 1885.65C466.794 1975.58 699.294 2069.89 831.794 2107.65C1031.79 2164.65 1885 2296.5 1921.5 2296.5C1939.86 2389.81 2151.15 3044.25 2118.5 3051C2003.18 3074.82 -1241.25 3049.12 -1356.5 3074C-1533.98 3112.32 -1202.27 2098.18 -1356.5 2004.5C-1499.95 1917.36 -1334.72 1507.59 -1356.5 1303C-1376.06 1119.2 -1377.88 885.886 -1356.5 697.499Z" fill="#1D1D1D"/>
</svg>
