<svg width="178" height="178" viewBox="0 0 178 178" fill="none" xmlns="http://www.w3.org/2000/svg">
<rect width="178" height="178" rx="56" fill="#F2F2F2"/>
<path d="M73.3654 55.9998C76.4379 55.9998 79.2302 56.2638 81.7687 56.8271C84.294 57.3991 86.4517 58.2793 88.268 59.5114C90.0625 60.7436 91.4761 62.3718 92.4697 64.4401C93.4544 66.5084 93.9577 69.0607 93.9577 72.0532C93.9577 75.3096 93.2137 78.038 91.7387 80.2383C90.2594 82.4386 88.0755 84.1988 85.165 85.607C89.1302 86.7512 92.0626 88.7754 94.0146 91.6358C95.9754 94.5402 96.9251 98.0167 96.9251 102.021C96.9251 105.322 96.3561 108.138 95.1307 110.514C93.9052 112.935 92.1983 114.915 90.0537 116.455C87.9529 117.987 85.4582 119.096 82.7447 119.831C80.0194 120.572 77.2085 120.948 74.3852 120.948H43V56.0306H73.3654V55.9998ZM117.141 109.52C119.067 111.403 121.837 112.349 125.43 112.349C128.013 112.349 130.245 111.698 132.127 110.382C133.982 109.106 135.103 107.698 135.541 106.246H146.867C145.104 111.879 142.281 115.927 138.552 118.347C134.832 120.812 130.306 122 125.072 122C121.408 122 118.139 121.428 115.128 120.24C112.296 119.118 109.731 117.409 107.6 115.223C105.515 112.978 103.911 110.327 102.886 107.434C101.779 104.398 101.254 101.053 101.254 97.4446C101.254 93.9109 101.845 90.6677 103.017 87.6313C104.199 84.5509 105.836 81.9985 107.919 79.7542C110.086 77.5099 112.572 75.8157 115.517 74.4999C118.463 73.1841 121.645 72.5944 125.233 72.5944C129.216 72.5944 132.63 73.3161 135.65 74.8959C138.508 76.3646 140.993 78.4721 142.915 81.0568C144.841 83.6355 146.198 86.6016 147.029 89.946C147.861 93.2465 148.124 96.7229 147.948 100.419H114.292C114.292 104.116 115.517 107.601 117.399 109.507L117.049 109.639L117.141 109.52ZM72.3238 109.74C73.7112 109.74 75.0373 109.608 76.2891 109.331C77.5583 109.067 78.6875 108.605 79.6285 108.01C80.5476 107.416 81.3354 106.567 81.9043 105.445C82.4733 104.389 82.7359 102.937 82.7359 101.22C82.7359 97.9199 81.773 95.5436 79.9348 94.0914C78.0529 92.6832 75.6019 91.9791 72.5382 91.9791H57.1805V109.802H72.3238V109.67V109.74ZM131.877 84.8765C130.337 83.1823 127.763 82.2714 124.625 82.2714C122.577 82.2714 120.883 82.597 119.522 83.3187C118.2 83.9788 117.115 84.8589 116.283 85.9151C115.452 86.9712 114.896 88.0273 114.568 89.2155C114.239 90.3597 114.042 91.4158 113.977 92.3399H134.818C134.512 89.0395 133.374 86.6192 131.842 84.9029V84.9469L131.877 84.8765ZM71.536 82.1701C74.0482 82.1701 76.1315 81.5805 77.7728 80.3571C79.4096 79.1689 80.1974 77.1887 80.1974 74.4691C80.1974 72.9553 79.8911 71.7187 79.4096 70.7462C78.8407 69.778 78.0966 69.0299 77.2213 68.4931C76.3022 67.9474 75.2518 67.5689 74.0701 67.3621C72.8577 67.1362 71.6266 67.0271 70.3937 67.0365H57.1367V82.1745H71.536V82.1701ZM111.355 60.352H137.475V66.7504H111.355V60.2991V60.3432V60.352Z" fill="url(#paint0_linear)"/>
<defs>
<linearGradient id="paint0_linear" x1="95.5" y1="55.9998" x2="31.309" y2="142.404" gradientUnits="userSpaceOnUse">
<stop stop-color="#98D4FF"/>
<stop offset="1" stop-color="#A3F3FF"/>
</linearGradient>
</defs>
</svg>
