<svg width="178" height="178" viewBox="0 0 178 178" fill="none" xmlns="http://www.w3.org/2000/svg">
<rect width="178" height="178" rx="56" fill="#F2F2F2"/>
<path d="M144.957 71.3093C144.947 71.2386 144.929 71.1709 144.917 71.1002C144.894 70.9646 144.869 70.829 144.833 70.6965C144.813 70.617 144.783 70.5404 144.758 70.4639C144.72 70.346 144.682 70.2283 144.635 70.1134C144.602 70.0339 144.564 69.9543 144.527 69.8778C144.478 69.7692 144.423 69.663 144.364 69.5597C144.319 69.483 144.272 69.4093 144.227 69.3357C144.163 69.2357 144.095 69.1383 144.023 69.0438C143.97 68.9728 143.915 68.9031 143.858 68.8347C143.782 68.7451 143.702 68.6586 143.618 68.5754C143.555 68.5108 143.493 68.4459 143.427 68.3869C143.338 68.3076 143.247 68.231 143.154 68.1573C143.082 68.1013 143.011 68.0453 142.936 67.9922C142.908 67.9745 142.884 67.951 142.857 67.9332L91.6695 33.8084C90.879 33.2811 89.9501 32.9998 88.9999 32.9998C88.0497 32.9998 87.1208 33.2811 86.3303 33.8084L35.1431 67.9332C35.1167 67.9509 35.0916 67.9744 35.0637 67.9922C34.9885 68.0452 34.9177 68.1012 34.8471 68.1573C34.7533 68.2302 34.6624 68.3068 34.5747 68.3869C34.5069 68.446 34.4452 68.5108 34.3816 68.5754C34.2984 68.6585 34.2189 68.7449 34.1431 68.8347C34.0857 68.9026 34.0297 68.9733 33.9765 69.0438C33.9053 69.1383 33.838 69.2357 33.7748 69.3357C33.7263 69.4089 33.6801 69.4836 33.6364 69.5597C33.5777 69.6636 33.5231 69.7697 33.4727 69.8778C33.436 69.9543 33.3976 70.0339 33.3652 70.1134C33.3181 70.2283 33.2799 70.346 33.2416 70.4639C33.2165 70.5404 33.1885 70.6171 33.1663 70.6965C33.131 70.829 33.1075 70.9646 33.0824 71.1002C33.0707 71.1709 33.0529 71.2386 33.0441 71.3093C33.0152 71.5173 33.0005 71.7269 33 71.9369V106.062C33 106.274 33.0161 106.483 33.0441 106.692C33.0529 106.76 33.0707 106.831 33.0824 106.898C33.1075 107.034 33.131 107.169 33.1663 107.302C33.1885 107.381 33.2165 107.458 33.2416 107.535C33.2798 107.652 33.3181 107.77 33.3652 107.888C33.3976 107.968 33.436 108.044 33.4727 108.121C33.5244 108.23 33.5773 108.336 33.6364 108.442C33.6805 108.516 33.7261 108.589 33.7748 108.663C33.838 108.763 33.9053 108.86 33.9765 108.955C34.0297 109.028 34.0857 109.096 34.1431 109.164C34.2183 109.252 34.2979 109.34 34.3816 109.423C34.4452 109.487 34.5069 109.552 34.5747 109.611C34.6623 109.692 34.7532 109.768 34.8471 109.841C34.9177 109.898 34.9899 109.953 35.0637 110.006C35.0916 110.024 35.1167 110.047 35.1431 110.065L86.3303 144.19C87.1209 144.718 88.0501 145 89.0007 145C89.9507 144.999 90.8794 144.717 91.6695 144.19L142.857 110.065C142.884 110.048 142.908 110.024 142.936 110.006C143.011 109.953 143.082 109.897 143.154 109.841C143.248 109.768 143.338 109.691 143.427 109.611C143.493 109.552 143.555 109.487 143.618 109.423C143.701 109.34 143.782 109.253 143.858 109.164C143.916 109.096 143.971 109.026 144.023 108.955C144.095 108.86 144.163 108.763 144.227 108.663C144.272 108.589 144.319 108.516 144.364 108.442C144.424 108.336 144.477 108.23 144.527 108.121C144.564 108.044 144.602 107.968 144.635 107.888C144.682 107.77 144.72 107.652 144.758 107.535C144.783 107.458 144.813 107.381 144.833 107.302C144.869 107.169 144.894 107.034 144.917 106.898C144.929 106.831 144.947 106.76 144.957 106.692C144.983 106.483 145 106.274 145 106.062V71.9368C144.999 71.7269 144.985 71.5173 144.957 71.3093ZM93.8129 46.8056L131.521 71.9426L114.678 83.2105L93.8129 69.2531V46.8056ZM84.1872 46.8056V69.2531L63.3231 83.2105L46.4788 71.9426L84.1872 46.8056ZM42.6256 80.9453L54.6668 88.9992L42.6256 97.0535V80.9453ZM84.1872 131.193L46.4788 106.056L63.3231 94.7909L84.1872 108.745V131.193ZM89.0007 100.385L71.9781 88.9992L89.0007 77.6135L106.022 88.9992L89.0007 100.385ZM93.8129 131.193V108.745L114.678 94.7909L131.521 106.056L93.8129 131.193ZM135.374 97.0535L123.334 88.9992L135.374 80.9453V97.0535Z" fill="url(#paint0_linear)"/>
<defs>
<linearGradient id="paint0_linear" x1="145" y1="33" x2="13.4998" y2="145" gradientUnits="userSpaceOnUse">
<stop stop-color="#D2BCFF"/>
<stop offset="1" stop-color="#FFBEDD"/>
</linearGradient>
</defs>
</svg>
