<svg width="622" height="622" viewBox="0 0 622 622" fill="none" xmlns="http://www.w3.org/2000/svg">
<path fill-rule="evenodd" clip-rule="evenodd" d="M441.5 143C449.056 162.124 492.445 202.182 527 221.5C563.688 242.011 593.811 295.068 573.307 338.864C551.063 386.377 502.026 394.935 459.953 427.608C428.909 451.716 405.421 490.452 375.613 516.228C341.153 546.028 294.26 553.391 254.443 546.593C221.088 527.945 199.117 493.92 171.163 467.306C138.613 436.318 100.15 427.984 91.4547 384.623C80.9887 332.433 106.63 298.778 118.368 262.151C130.067 225.647 152.183 160.129 183.254 135.571C210.963 113.671 230.437 114.977 287.219 100.474C327.045 90.302 373.806 88.5581 395.5 100.474C423.813 116.026 433.945 123.876 441.5 143Z" stroke="#99FFD4" stroke-width="8" stroke-linejoin="round" stroke-dasharray="21 21"/>
</svg>
