<svg width="178" height="178" viewBox="0 0 178 178" fill="none" xmlns="http://www.w3.org/2000/svg">
<rect width="178" height="178" rx="56" fill="#F2F2F2"/>
<path d="M89 144C81.5521 144 74.4264 142.55 67.623 139.649C60.8197 136.749 54.9652 132.846 50.0596 127.94C45.154 123.035 41.251 117.18 38.3506 110.377C35.4502 103.574 34 96.4479 34 89C34 81.5521 35.4502 74.4264 38.3506 67.623C41.251 60.8197 45.154 54.9652 50.0596 50.0596C54.9652 45.154 60.8197 41.251 67.623 38.3506C74.4264 35.4502 81.5521 34 89 34C96.4479 34 103.574 35.4502 110.377 38.3506C117.18 41.251 123.035 45.154 127.94 50.0596C132.846 54.9652 136.749 60.8197 139.649 67.623C142.55 74.4264 144 81.5521 144 89C144 96.4479 142.55 103.574 139.649 110.377C136.749 117.18 132.846 123.035 127.94 127.94C123.035 132.846 117.18 136.749 110.377 139.649C103.574 142.55 96.4479 144 89 144ZM122.193 97.916C117.753 96.5553 112.418 95.875 106.188 95.875C104.397 95.875 102.428 96.1973 100.279 96.8418C101.64 104.648 102.464 112.525 102.75 120.475C107.477 118.398 111.559 115.39 114.996 111.451C118.434 107.512 120.833 103.001 122.193 97.916ZM95.7676 122.73C95.5527 115.569 94.6934 107.978 93.1895 99.957L89 102.75C85.2044 105.471 82.2145 108.229 80.0303 111.021C77.846 113.814 76.3958 117.037 75.6797 120.689C79.9049 122.48 84.3451 123.375 89 123.375C91.2917 123.375 93.5475 123.16 95.7676 122.73ZM54.625 89C54.625 94.6576 55.9141 99.9391 58.4922 104.845C61.0703 109.75 64.5794 113.779 69.0195 116.93C71.7409 108.622 76.5391 102.034 83.4141 97.1641C86.1354 95.2305 88.8568 93.6549 91.5781 92.4375C90.9336 89.7878 90.2533 87.4245 89.5371 85.3477C84.166 87.8542 78.6159 89.0716 72.8867 89C66.5846 88.9284 60.569 87.7109 54.8398 85.3477C54.6966 86.6367 54.625 87.8542 54.625 89ZM56.3438 78.1504C61.9297 80.8001 67.0859 82.125 71.8125 82.125C76.2526 82.125 81.194 80.9076 86.6367 78.4727C82.7695 70.5234 77.1478 64.5794 69.7715 60.6406C63.2546 65.0091 58.7786 70.8457 56.3438 78.1504ZM89 54.625C84.918 54.625 80.8359 55.4128 76.7539 56.9883C84.1302 60.8555 89.6445 66.6921 93.2969 74.498C99.8854 69.7715 103.932 64.5436 105.436 58.8145C100.351 56.0215 94.8724 54.625 89 54.625ZM111.021 62.5742C108.229 70.237 103.574 76.36 97.0566 80.9434L96.0898 81.5879C96.9492 84.0228 97.8086 86.8158 98.668 89.9668C101.676 89.3223 104.684 89 107.691 89C112.848 89.0716 118.004 89.9668 123.16 91.6855C123.303 89.9668 123.375 89.0716 123.375 89C123.375 83.7721 122.283 78.8665 120.099 74.2832C117.914 69.6999 114.889 65.7969 111.021 62.5742Z" fill="url(#paint0_linear)"/>
<defs>
<linearGradient id="paint0_linear" x1="129.48" y1="59.08" x2="-27.5" y2="200.5" gradientUnits="userSpaceOnUse">
<stop stop-color="#EFB5D1"/>
<stop offset="1" stop-color="#FFFCB0"/>
</linearGradient>
</defs>
</svg>
