<svg width="178" height="178" viewBox="0 0 178 178" fill="none" xmlns="http://www.w3.org/2000/svg">
<rect width="178" height="178" rx="56" fill="#F2F2F2"/>
<path d="M89 34C59.1875 34 36 57.0323 36 86.6452C36 121.194 67.4687 136 72.4375 136C75.75 136 75.75 134.355 75.75 132.71V124.484C64.1562 127.774 59.1875 121.194 57.5312 116.258C57.5312 116.258 57.5312 114.613 54.2187 111.323C52.5625 109.677 45.9375 106.387 52.5625 106.387C57.5312 106.387 60.8437 112.968 60.8437 112.968C65.8125 119.548 72.4375 117.903 75.75 116.258C75.75 112.968 79.0625 109.677 79.0625 109.677C65.8125 108.032 55.875 103.097 55.875 85C55.875 78.4194 57.5312 73.4839 60.8437 70.1935C60.8437 70.1935 57.5312 63.6129 60.8437 55.3871C60.8437 55.3871 69.125 55.3871 75.75 61.9677C80.7187 58.6774 97.2812 58.6774 102.25 61.9677C108.875 55.3871 117.156 55.3871 117.156 55.3871C120.469 66.9032 117.156 70.1935 117.156 70.1935C120.469 73.4839 122.125 78.4194 122.125 85C122.125 103.097 110.531 108.032 98.9375 109.677C100.594 111.323 102.25 114.613 102.25 119.548V132.71C102.25 134.355 102.25 136 105.562 136C110.531 136 142 121.194 142 86.6452C142 57.0323 118.812 34 89 34Z" fill="url(#paint0_linear)"/>
<defs>
<linearGradient id="paint0_linear" x1="49.8067" y1="47.6293" x2="140.118" y2="193.168" gradientUnits="userSpaceOnUse">
<stop stop-color="#65F9CC"/>
<stop offset="1" stop-color="#FFFCB0"/>
</linearGradient>
</defs>
</svg>
