<svg width="178" height="178" viewBox="0 0 178 178" fill="none" xmlns="http://www.w3.org/2000/svg">
<rect width="178" height="178" rx="56" fill="white"/>
<path d="M59.5168 137V72.229H36.3659V137H59.5168ZM47.9444 63.3803C56.0175 63.3803 61.0427 58.4066 61.0427 52.1912C60.8922 45.8356 56.0178 41 48.0976 41C40.1786 41 35 45.8357 35 52.1912C35 58.4069 40.0239 63.3803 47.7932 63.3803H47.9436H47.9444ZM72.3308 137H95.4818V100.829C95.4818 98.8928 95.6322 96.959 96.2436 95.5752C97.9172 91.7074 101.726 87.7016 108.122 87.7016C116.499 87.7016 119.851 93.6413 119.851 102.348V137H143V99.8604C143 79.9653 131.579 70.7083 116.347 70.7083C103.858 70.7083 98.3741 77.2 95.3278 81.6215H95.4823V72.2276H72.3313C72.6352 78.3054 72.3313 136.999 72.3313 136.999L72.3308 137Z" fill="url(#paint0_linear)"/>
<defs>
<linearGradient id="paint0_linear" x1="59" y1="68.5" x2="89" y2="168" gradientUnits="userSpaceOnUse">
<stop stop-color="#98D4FF"/>
<stop offset="1" stop-color="#EFB5D1"/>
</linearGradient>
</defs>
</svg>
