<svg width="178" height="178" viewBox="0 0 178 178" fill="none" xmlns="http://www.w3.org/2000/svg">
<rect width="178" height="178" rx="56" fill="white"/>
<path d="M78.7778 70.5H109.444C110.8 70.5 112.1 69.9996 113.059 69.1088C114.017 68.218 114.556 67.0098 114.556 65.75C114.556 64.4902 114.017 63.282 113.059 62.3912C112.1 61.5004 110.8 61 109.444 61H78.7778C77.4222 61 76.1222 61.5004 75.1637 62.3912C74.2052 63.282 73.6667 64.4902 73.6667 65.75C73.6667 67.0098 74.2052 68.218 75.1637 69.1088C76.1222 69.9996 77.4222 70.5 78.7778 70.5ZM68.5556 89.5H109.444C110.8 89.5 112.1 88.9996 113.059 88.1088C114.017 87.218 114.556 86.0098 114.556 84.75C114.556 83.4902 114.017 82.282 113.059 81.3912C112.1 80.5004 110.8 80 109.444 80H68.5556C67.2 80 65.9 80.5004 64.9415 81.3912C63.9829 82.282 63.4445 83.4902 63.4445 84.75C63.4445 86.0098 63.9829 87.218 64.9415 88.1088C65.9 88.9996 67.2 89.5 68.5556 89.5ZM68.5556 108.5H109.444C110.8 108.5 112.1 108 113.059 107.109C114.017 106.218 114.556 105.01 114.556 103.75C114.556 102.49 114.017 101.282 113.059 100.391C112.1 99.5004 110.8 99 109.444 99H68.5556C67.2 99 65.9 99.5004 64.9415 100.391C63.9829 101.282 63.4445 102.49 63.4445 103.75C63.4445 105.01 63.9829 106.218 64.9415 107.109C65.9 108 67.2 108.5 68.5556 108.5ZM129.889 42H48.1111C46.7556 42 45.4555 42.5004 44.497 43.3912C43.5385 44.282 43 45.4902 43 46.75V132.25C43 133.132 43.2643 133.997 43.7633 134.747C44.2624 135.498 44.9764 136.104 45.8254 136.499C46.6743 136.893 47.6248 137.06 48.5701 136.981C49.5155 136.902 50.4184 136.579 51.1778 136.05L61.7578 128.688L72.2867 136.05C73.1714 136.667 74.2474 137 75.3533 137C76.4592 137 77.5353 136.667 78.42 136.05L89 128.688L99.58 136.05C100.465 136.667 101.541 137 102.647 137C103.753 137 104.829 136.667 105.713 136.05L116.242 128.688L126.822 136.05C127.585 136.578 128.492 136.899 129.44 136.974C130.388 137.05 131.34 136.878 132.189 136.477C133.032 136.083 133.741 135.479 134.237 134.733C134.733 133.986 134.997 133.127 135 132.25V46.75C135 45.4902 134.462 44.282 133.503 43.3912C132.544 42.5004 131.244 42 129.889 42ZM124.778 122.75L119.309 118.95C118.424 118.333 117.348 118 116.242 118C115.136 118 114.06 118.333 113.176 118.95L102.647 126.312L92.0667 118.95C91.182 118.333 90.1059 118 89 118C87.8941 118 86.8181 118.333 85.9333 118.95L75.3533 126.312L64.8245 118.95C63.9397 118.333 62.8637 118 61.7578 118C60.6519 118 59.5758 118.333 58.6911 118.95L53.2222 122.75V51.5H124.778V122.75Z" fill="url(#paint0_linear)"/>
<defs>
<linearGradient id="paint0_linear" x1="89" y1="42" x2="186.467" y2="274.39" gradientUnits="userSpaceOnUse">
<stop stop-color="#D2BCFF"/>
<stop offset="1" stop-color="#A3F3FF"/>
</linearGradient>
</defs>
</svg>
